<?xml version="1.0" encoding="utf-8"?>
<!-- Generator: Adobe Illustrator 25.0.1, SVG Export Plug-In . SVG Version: 6.00 Build 0)  -->
<svg version="1.1" id="_图层_1" xmlns:serif="http://www.serif.com/"
	 xmlns="http://www.w3.org/2000/svg" xmlns:xlink="http://www.w3.org/1999/xlink" x="0px" y="0px" viewBox="0 0 727.2 825.4"
	 style="enable-background:new 0 0 727.2 825.4;" xml:space="preserve">
<style type="text/css">
	.st0{fill:#141E3E;stroke:#18469B;stroke-width:15;stroke-linecap:round;stroke-linejoin:round;stroke-miterlimit:10;}
	
		.st1{opacity:0.5;fill:none;stroke:#FFFFFF;stroke-width:3;stroke-linecap:round;stroke-linejoin:round;stroke-miterlimit:10;enable-background:new    ;}
	
		.st2{opacity:0.55;fill:#254A7F;stroke:#FFFFFF;stroke-width:3;stroke-linecap:round;stroke-linejoin:round;stroke-miterlimit:10;enable-background:new    ;}
	
		.st3{opacity:0.4;fill:#EA5119;stroke:#FFFFFF;stroke-width:3;stroke-linecap:round;stroke-linejoin:round;stroke-miterlimit:10;enable-background:new    ;}
	
		.st4{opacity:0.55;fill:#006760;stroke:#FFFFFF;stroke-width:3;stroke-linecap:round;stroke-linejoin:round;stroke-miterlimit:10;enable-background:new    ;}
	
		.st5{opacity:0.45;fill:#AA1A4B;stroke:#FFFFFF;stroke-width:3;stroke-linecap:round;stroke-linejoin:round;stroke-miterlimit:10;enable-background:new    ;}
	
		.st6{opacity:0.3;fill:#E7EA84;stroke:#FFFFFF;stroke-width:3;stroke-linecap:round;stroke-linejoin:round;stroke-miterlimit:10;enable-background:new    ;}
	
		.st7{opacity:0.5;fill:#254C9F;stroke:#FFFFFF;stroke-width:3;stroke-linecap:round;stroke-linejoin:round;stroke-miterlimit:10;enable-background:new    ;}
	
		.st8{opacity:0.4;fill:#254A7F;stroke:#FFFFFF;stroke-width:3;stroke-linecap:round;stroke-linejoin:round;stroke-miterlimit:10;enable-background:new    ;}
	
		.st9{opacity:0.45;fill:none;stroke:#FFFFFF;stroke-width:3;stroke-linecap:round;stroke-linejoin:round;stroke-miterlimit:10;enable-background:new    ;}
	
		.st10{opacity:0.45;fill:#254A7F;stroke:#FFFFFF;stroke-width:3;stroke-linecap:round;stroke-linejoin:round;stroke-miterlimit:10;enable-background:new    ;}
	
		.st11{opacity:0.5;fill:#79C178;stroke:#FFFFFF;stroke-width:3;stroke-linecap:round;stroke-linejoin:round;stroke-miterlimit:10;enable-background:new    ;}
	.st12{opacity:0.8;fill:#FFFFFF;enable-background:new    ;}
	.st13{font-family:'Arial-ItalicMT';}
	.st14{font-size:60px;}
	.st15{font-family:'Arial-BoldMT';}
	.st16{font-size:72px;}
	.st17{fill:#FFFFFF;}
	.st18{font-family:'TimesNewRomanPS-BoldItalicMT';}
	.st19{font-size:120px;}
</style>
<path class="st0" d="M682.2,210.5L380.5,36.3c-11.3-6.5-25.3-6.5-36.6,0L42.2,210.5c-11.3,6.5-18.3,18.6-18.3,31.7v348.4
	c0,13.1,7,25.2,18.3,31.7l301.7,174.1c11.3,6.5,25.3,6.5,36.6,0l301.7-174.2c11.3-6.5,18.3-18.6,18.3-31.7V242.1
	C700.5,229.1,693.6,217,682.2,210.5z"/>
<path class="st1" d="M455.2,161.1l-40.4-23.4c-1.5-0.9-3.4-0.9-4.9,0l-40.5,23.4c-1.5,0.9-2.5,2.5-2.5,4.3v46.8
	c0,1.7,0.9,3.4,2.5,4.3l40.5,23.4c1.5,0.9,3.4,0.9,4.9,0l40.5-23.4c1.5-0.9,2.5-2.5,2.5-4.3v-46.8
	C457.7,163.5,456.8,161.9,455.2,161.1z"/>
<path class="st2" d="M405.2,76l-40.5-23.4c-1.5-0.9-3.4-0.9-4.9,0L319.3,76c-1.5,0.9-2.5,2.5-2.5,4.3V127c0,1.7,0.9,3.4,2.5,4.3
	l40.5,23.4c1.5,0.9,3.4,0.9,4.9,0l40.5-23.5c1.5-0.9,2.5-2.5,2.5-4.3V80.2C407.7,78.4,406.8,76.8,405.2,76z"/>
<path class="st3" d="M355.8,161.1l-40.5-23.4c-1.5-0.9-3.4-0.9-4.9,0l-40.5,23.4c-1.5,0.9-2.5,2.5-2.5,4.3v46.8
	c0,1.7,0.9,3.4,2.5,4.3l40.5,23.4c1.5,0.9,3.4,0.9,4.9,0l40.5-23.4c1.5-0.9,2.5-2.5,2.5-4.3v-46.8
	C358.3,163.5,357.3,161.9,355.8,161.1z"/>
<path class="st4" d="M505.6,416.7l-40.5-23.4c-1.5-0.9-3.4-0.9-4.9,0l-40.5,23.4c-1.5,0.9-2.5,2.5-2.5,4.3v46.8
	c0,1.7,0.9,3.4,2.5,4.3l40.5,23.4c1.5,0.9,3.4,0.9,4.9,0l40.5-23.4c1.5-0.9,2.5-2.5,2.5-4.3V421
	C508.1,419.2,507.2,417.6,505.6,416.7z"/>
<path class="st5" d="M555.5,331.9L515,308.6c-1.5-0.9-3.4-0.9-4.9,0L469.6,332c-1.5,0.9-2.5,2.5-2.5,4.3v46.8c0,1.7,0.9,3.4,2.5,4.3
	l40.5,23.4c1.5,0.9,3.4,0.9,4.9,0l40.5-23.4c1.5-0.9,2.5-2.5,2.5-4.3v-46.8C558,334.5,557,332.8,555.5,331.9z"/>
<path class="st1" d="M606,416.7l-40.5-23.4c-1.5-0.9-3.4-0.9-4.9,0l-40.5,23.4c-1.5,0.9-2.5,2.5-2.5,4.3v46.8c0,1.7,0.9,3.4,2.5,4.3
	l40.5,23.4c1.5,0.9,3.4,0.9,4.9,0L606,472c1.5-0.9,2.5-2.5,2.5-4.3V421C608.5,419.3,607.5,417.6,606,416.7z"/>
<path class="st6" d="M455.3,501.3l-40.5-23.4c-1.5-0.9-3.4-0.9-4.9,0l-40.5,23.4c-1.5,0.9-2.5,2.5-2.5,4.3v46.8
	c0,1.7,0.9,3.4,2.5,4.3l40.5,23.4c1.5,0.9,3.4,0.9,4.9,0l40.5-23.5c1.5-0.9,2.5-2.5,2.5-4.3v-46.8
	C457.8,503.8,456.9,502.2,455.3,501.3z"/>
<path class="st7" d="M505.6,245.8l-40.5-23.4c-1.5-0.9-3.4-0.9-4.9,0l-40.5,23.4c-1.5,0.9-2.5,2.5-2.5,4.3v46.8
	c0,1.7,0.9,3.4,2.5,4.3l40.5,23.4c1.5,0.9,3.4,0.9,4.9,0l40.5-23.4c1.5-0.9,2.5-2.5,2.5-4.3v-46.8
	C508.1,248.3,507.1,246.7,505.6,245.8z"/>
<path class="st8" d="M305.8,416.7l-40.5-23.4c-1.5-0.9-3.4-0.9-4.9,0l-40.5,23.4c-1.5,0.9-2.5,2.5-2.5,4.3v46.8
	c0,1.7,0.9,3.4,2.5,4.3l40.5,23.4c1.5,0.9,3.4,0.9,4.9,0l40.5-23.4c1.5-0.9,2.5-2.5,2.5-4.3V421
	C308.3,419.1,307.4,417.5,305.8,416.7z"/>
<path class="st9" d="M355.8,501.3l-40.5-23.4c-1.5-0.9-3.4-0.9-4.9,0l-40.5,23.4c-1.5,0.9-2.5,2.5-2.5,4.3v46.8
	c0,1.7,0.9,3.4,2.5,4.3l40.5,23.4c1.5,0.9,3.4,0.9,4.9,0l40.5-23.4c1.5-0.9,2.5-2.5,2.5-4.3v-46.8
	C358.3,503.8,357.4,502.2,355.8,501.3z"/>
<path class="st10" d="M305.8,585.7l-40.5-23.4c-1.5-0.9-3.4-0.9-4.9,0l-40.5,23.4c-1.5,0.9-2.5,2.5-2.5,4.3v46.8
	c0,1.7,0.9,3.4,2.5,4.3l40.5,23.4c1.5,0.9,3.4,0.9,4.9,0l40.5-23.4c1.5-0.9,2.5-2.5,2.5-4.3V590
	C308.3,588.3,307.3,586.6,305.8,585.7z"/>
<path class="st11" d="M255.4,501.3l-40.5-23.4c-1.5-0.9-3.4-0.9-4.9,0l-40.5,23.4c-1.5,0.9-2.5,2.5-2.5,4.3v46.8
	c0,1.7,0.9,3.4,2.5,4.3l40.5,23.4c1.5,0.9,3.4,0.9,4.9,0l40.5-23.5c1.5-0.9,2.5-2.5,2.5-4.3v-46.7C258,503.8,257,502.2,255.4,501.3z
	"/>
<text transform="matrix(1 0 0 1 48.9726 294.9012)" class="st12 st13 st14">log_message</text>
<text transform="matrix(1 0 0 1 49.452 376.9901)" class="st12 st13 st14">parallelize_fun</text>
<text transform="matrix(1 0 0 1 74.9726 449.3999)" class="st12 st15 st16">. . .</text>
<text transform="matrix(0.866 -0.5 0.5 0.866 341.6957 771.1688)" class="st17 st18 st19">thisutils</text>
<path class="st1" d="M606,245.8l-40.5-23.4c-1.5-0.9-3.4-0.9-4.9,0l-40.5,23.4c-1.5,0.9-2.5,2.5-2.5,4.3v46.8c0,1.7,0.9,3.4,2.5,4.3
	l40.5,23.4c1.5,0.9,3.4,0.9,4.9,0l40.5-23.5c1.5-0.9,2.5-2.5,2.5-4.3v-46.7C608.5,248.4,607.5,246.7,606,245.8z"/>
</svg>
